# xmcd
#
# Track frame offsets:
#	150
#	11806
#	25689
#	41798
#	55980
#	70861
#	81325
#	102530
#	118752
#	133304
#	148759
#	165678
#	178275
#	188999
#	204565
#	218881
#
# Disc length: 3097 seconds
#
# Revision: 1
# Processed by: cddbd v1.4PL0 Copyright (c) Steve Scherf et al.
# Submitted via: audiograbber 1.80.04
#
DISCID=fc0c1710
DTITLE=Liz Masterson and Sean Blackburn - Born to the Saddle
DYEAR=1998
DGENRE=
TTITLE0=Texas Cowboy
TTITLE1=Shine on Rocky Mountain Moonlight
TTITLE2=My Adobe Hacienda
TTITLE3=Gallopin' to Gallup (on the Santa Fe Trail)
TTITLE4=Back to My Wyoming Home
TTITLE5=Old Black Mountain Trail
TTITLE6=Last Cattle Drive
TTITLE7=(That) Palomino Pal o' Mine
TTITLE8=Gold Coast Express
TTITLE9=After All These Years
TTITLE10=I'm an Old Cowhand
TTITLE11=Make Believe Cowboy
TTITLE12=Short Grass
TTITLE13=When the Flowers of Montana Are Blooming
TTITLE14=Jingle Bobs
TTITLE15=Born to the Saddle
EXTD=
EXTT0=
EXTT1=
EXTT2=
EXTT3=
EXTT4=
EXTT5=
EXTT6=
EXTT7=
EXTT8=
EXTT9=
EXTT10=
EXTT11=
EXTT12=
EXTT13=
EXTT14=
EXTT15=
PLAYORDER=
